<svg id="Layer_1" data-name="Layer 1" xmlns="http://www.w3.org/2000/svg" viewBox="0 0 1080 1080"><defs><style>.cls-1{fill:#9b5c8f;}.cls-2{fill:#fff;}.cls-3{fill:#00c3ff;}.cls-4{fill:#00aaf0;}.cls-5{fill:#0096dc;}.cls-6{fill:#007dc8;}.cls-7{fill:#5b5d6e;}.cls-8{fill:#b4e6ff;}.cls-9{fill:#c7cfe2;}.cls-10{fill:#7f8499;}.cls-11{fill:#9bd6ff;}.cls-12{fill:#f1f4fb;}.cls-13{fill:#ffc850;}</style></defs><title>Artboard 1</title><rect class="cls-1" x="-0.13" width="1080" height="1080"/><path class="cls-2" d="M29,50.26,16.13,24H22l5.53,12.1c1.37,3.16,2.67,6.15,4.15,9.35h.26c1.48-3.2,3-6.19,4.28-9.35L41.71,24h5.65L34.47,50.26V66.88H29Z"/><path class="cls-2" d="M47.61,51c0-10.6,6.93-16.71,14.72-16.71S77,40.44,77,51,70.11,67.66,62.33,67.66,47.61,61.56,47.61,51Zm23.88,0c0-7.28-3.7-12.23-9.16-12.23S53.16,43.76,53.16,51s3.7,12.15,9.17,12.15S71.49,58.32,71.49,51Z"/><path class="cls-2" d="M85,55.24V35.12h5.38V54.55c0,5.91,1.79,8.45,6,8.45,3.25,0,5.5-1.61,8.5-5.36V35.12h5.38V66.88h-4.44l-.45-5h-.18c-3,3.46-6.12,5.75-10.48,5.75C88,67.66,85,63.35,85,55.24Z"/><path class="cls-2" d="M119.67,36.22c3.27-2.16,5-4.45,5-8.2l-.77-4.33L126.57,27a3.32,3.32,0,0,1-2.52,1.13,3.26,3.26,0,0,1-3.47-3.29,3.33,3.33,0,0,1,3.47-3.62c2.59,0,4.12,2.12,4.12,5.9,0,5.22-2.44,9-7,11.6Z"/><path class="cls-2" d="M136.37,35.12h4.44l.45,5.78h.18c2.21-4,5.46-6.57,9-6.57a7.28,7.28,0,0,1,3.39.66l-1,4.71a9,9,0,0,0-3.08-.52c-2.68,0-5.89,1.93-8,7.31V66.88h-5.38Z"/><path class="cls-2" d="M156,51c0-10.34,7-16.71,14.28-16.71,8.1,0,12.68,5.82,12.68,14.91a17.44,17.44,0,0,1-.25,3H161.36c.38,6.73,4.5,11.09,10.55,11.09a13.82,13.82,0,0,0,7.9-2.54l1.93,3.53a18.7,18.7,0,0,1-10.49,3.29C162.78,67.66,156,61.47,156,51Zm22.21-2.6c0-6.36-2.87-9.82-7.83-9.82-4.47,0-8.46,3.58-9.11,9.82Z"/><path class="cls-3" d="M201.88,62.57l2.52-3.7c2.78,2.37,6.11,4.32,10.09,4.32,4.84,0,7.3-2.64,7.3-6.72,0-10.59-18.26-8.29-18.26-21,0-6.57,4.8-11,11.68-11,5.17,0,8.31,2.19,11,5l-2.87,3.18c-2.44-2.34-4.42-3.71-7.95-3.71-4,0-6.58,2.52-6.58,6.29,0,9.5,18.26,6.88,18.26,20.91,0,7-5,11.56-12.56,11.56A19.57,19.57,0,0,1,201.88,62.57ZM213,18h3.93v8.4H213Zm0,47.75h3.93v8.3H213Z"/><path class="cls-3" d="M233.57,63.7c12.53-12.49,19.61-20,19.61-26.77,0-4.75-2.58-8.13-7.9-8.13-3.49,0-6.49,2.21-8.86,5l-3.12-3c3.48-3.83,7.24-6.34,12.64-6.34,7.7,0,12.51,4.87,12.51,12.27,0,7.82-7.18,15.6-17,25.93,2.26-.18,4.85-.36,7-.36h12.05v4.62H233.57Z"/><path class="cls-3" d="M283.3,39c0-2.19.18-5.79.31-8h-.26c-1,2-2.22,3.81-3.4,5.88l-9.73,14.24h23.85v4.28H264.59V51.83l17.83-26.62h6V66.88H283.3Z"/><path class="cls-3" d="M300.17,63.59a3.89,3.89,0,1,1,3.89,4.07A3.93,3.93,0,0,1,300.17,63.59Z"/><path class="cls-3" d="M315.09,45.89c0-14,5-21.47,13.35-21.47s13.36,7.52,13.36,21.47-5,21.77-13.36,21.77S315.09,59.86,315.09,45.89Zm21.49,0c0-12.22-3.3-17.14-8.14-17.14s-8.14,4.92-8.14,17.14,3.3,17.44,8.14,17.44S336.58,58.1,336.58,45.89Z"/><path class="cls-3" d="M346.28,62l2.65-3.51c2.49,2.47,5.61,4.75,10.51,4.75,5.08,0,9.12-3.68,9.12-9.49s-3.51-9.15-8.84-9.15c-2.88,0-4.67.88-7.16,2.53l-2.85-1.81,1.38-20.06h20.85v4.62H355.8L354.7,42.2a12.51,12.51,0,0,1,6.4-1.73c7.1,0,12.92,4.05,12.92,13.05s-6.8,14.14-14,14.14A18.27,18.27,0,0,1,346.28,62Z"/><path class="cls-2" d="M393.61,58.63c0-6.92,6-10.37,19.51-11.85,0-4.08-1.37-8-6.56-8-3.67,0-7,1.74-9.47,3.41L395,38.48a23.25,23.25,0,0,1,12.47-4.15c7.75,0,11,5.16,11,13.06V66.88h-4.44l-.45-3.8h-.18c-3,2.52-6.56,4.58-10.5,4.58C397.6,67.66,393.61,64.36,393.61,58.63Zm19.51.5V50.31c-10.65,1.28-14.25,3.89-14.25,7.95,0,3.61,2.45,5.07,5.57,5.07S410,61.84,413.12,59.13Z"/><path class="cls-2" d="M424.74,35.12h5.49L435,53.46c.69,3,1.28,5.88,1.88,8.86h.26c.69-3,1.38-5.88,2.16-8.86l4.91-18.34h5.24l5,18.34c.78,3,1.47,5.88,2.2,8.86h.27c.68-3,1.27-5.84,2-8.86l4.63-18.34h5.12L460,66.88h-6.54L448.9,49.81c-.77-3-1.38-5.93-2.15-9.15h-.26c-.69,3.22-1.33,6.23-2.18,9.24l-4.45,17h-6.29Z"/><path class="cls-2" d="M472.85,58.63c0-6.92,6-10.37,19.51-11.85,0-4.08-1.37-8-6.56-8-3.67,0-7,1.74-9.47,3.41l-2.1-3.69a23.25,23.25,0,0,1,12.47-4.15c7.75,0,11,5.16,11,13.06V66.88h-4.44l-.45-3.8h-.18c-3,2.52-6.56,4.58-10.51,4.58C476.84,67.66,472.85,64.36,472.85,58.63Zm19.51.5V50.31c-10.65,1.28-14.25,3.89-14.25,7.95,0,3.61,2.45,5.07,5.57,5.07S489.28,61.84,492.36,59.13Z"/><path class="cls-2" d="M504.59,79.91l1.05-4.28a8.06,8.06,0,0,0,2.42.48c3.58,0,5.85-2.88,7.16-6.82l.72-2.35L503.2,35.12h5.54l6.48,17.58c1,2.76,2.06,6,3.09,8.95h.27c.9-2.89,1.8-6.14,2.67-8.95l5.66-17.58h5.26l-12,34.38c-2.24,6.3-5.52,11.07-11.89,11.07A10.1,10.1,0,0,1,504.59,79.91Z"/><path class="cls-2" d="M548,35.43l4.55-.31h11.86V39.5H548Zm4.31-5.33c0-6.45,2.94-10.55,9.3-10.55a14.2,14.2,0,0,1,5.28,1.09l-1.14,4.1a8.85,8.85,0,0,0-3.6-.82c-3,0-4.47,2.1-4.47,6.2V66.88h-5.37Z"/><path class="cls-2" d="M570.44,35.12h4.44l.46,5.78h.18c2.21-4,5.45-6.57,9-6.57a7.33,7.33,0,0,1,3.39.66l-1,4.71a9,9,0,0,0-3.08-.52c-2.68,0-5.89,1.93-8,7.31V66.88h-5.38Z"/><path class="cls-2" d="M590.12,51c0-10.6,6.93-16.71,14.71-16.71S619.55,40.44,619.55,51s-6.93,16.62-14.72,16.62S590.12,61.56,590.12,51ZM614,51c0-7.28-3.7-12.23-9.17-12.23s-9.16,4.95-9.16,12.23,3.7,12.15,9.16,12.15S614,58.32,614,51Z"/><path class="cls-2" d="M627.91,35.12h4.44l.45,4.6H633c2.78-3,6.1-5.39,9.89-5.39,4.85,0,7.46,2.33,8.76,6.06,3.3-3.57,6.62-6.06,10.48-6.06,6.53,0,9.66,4.32,9.66,12.43V66.88H666.4V47.45c0-5.92-1.87-8.45-5.91-8.45-2.46,0-5,1.61-8,4.88v23h-5.38V47.45c0-5.92-1.87-8.45-5.9-8.45-2.39,0-5,1.61-8,4.88v23h-5.38Z"/><path class="cls-2" d="M691.71,35.43l4.55-.31h11.86V39.5H691.71ZM696,30.1c0-6.45,2.93-10.55,9.3-10.55a14.11,14.11,0,0,1,5.27,1.09l-1.13,4.1a8.85,8.85,0,0,0-3.6-.82c-3,0-4.47,2.1-4.47,6.2V66.88H696Z"/><path class="cls-2" d="M714.19,35.12h4.44l.46,5.78h.17c2.22-4,5.46-6.57,9-6.57a7.35,7.35,0,0,1,3.4.66l-1,4.71a9,9,0,0,0-3.08-.52c-2.68,0-5.89,1.93-8,7.31V66.88h-5.38Z"/><path class="cls-2" d="M733.87,51c0-10.34,7-16.71,14.27-16.71,8.1,0,12.68,5.82,12.68,14.91a17.44,17.44,0,0,1-.25,3H739.18c.38,6.73,4.5,11.09,10.55,11.09a13.82,13.82,0,0,0,7.9-2.54l1.93,3.53a18.7,18.7,0,0,1-10.49,3.29C740.61,67.66,733.87,61.47,733.87,51Zm22.2-2.6c0-6.36-2.86-9.82-7.83-9.82-4.47,0-8.46,3.58-9.11,9.82Z"/><path class="cls-2" d="M766.25,51c0-10.34,7-16.71,14.28-16.71,8.1,0,12.67,5.82,12.67,14.91a16.52,16.52,0,0,1-.25,3H771.57c.38,6.73,4.49,11.09,10.55,11.09a13.82,13.82,0,0,0,7.9-2.54L792,64.37a18.7,18.7,0,0,1-10.49,3.29C773,67.66,766.25,61.47,766.25,51Zm22.21-2.6c0-6.36-2.87-9.82-7.83-9.82-4.47,0-8.46,3.58-9.11,9.82Z"/><path class="cls-2" d="M810.54,63.26l2.66-3.54c2.75,2.22,5.56,3.76,9.37,3.76,4.17,0,6.24-2.22,6.24-4.94,0-3.26-3.75-4.71-7.26-6-4.45-1.63-9.47-3.82-9.47-9.18,0-5.08,4.07-9,10.95-9a16.14,16.14,0,0,1,9.88,3.57l-2.58,3.45a11.91,11.91,0,0,0-7.24-2.83c-4,0-5.85,2.13-5.85,4.56,0,3,3.46,4.17,7,5.51,4.59,1.72,9.69,3.59,9.69,9.63,0,5.15-4.09,9.44-11.59,9.44A19.12,19.12,0,0,1,810.54,63.26Z"/><path class="cls-2" d="M841.45,20.33h5.37V33.06l-.19,6.53c3-2.87,6.19-5.26,10.55-5.26,6.69,0,9.69,4.32,9.69,12.43V66.88H861.5V47.45c0-5.92-1.79-8.45-6-8.45-3.25,0-5.5,1.66-8.69,4.88v23h-5.37Z"/><path class="cls-2" d="M876,25.12a3.72,3.72,0,0,1,7.43,0,3.72,3.72,0,0,1-7.43,0Zm1,10h5.37V66.88H877Z"/><path class="cls-2" d="M893.09,35.12h4.44l.45,3.67h.18c2.87-2.39,6.45-4.46,10.13-4.46,8.2,0,12.59,6.37,12.59,16.19,0,10.82-6.5,17.14-13.76,17.14-2.91,0-5.88-1.34-8.8-3.68l.14,5.55V80.28h-5.37Zm22.24,15.45c0-7-2.4-11.71-8.38-11.71-2.69,0-5.4,1.48-8.49,4.33V59.84c2.88,2.41,5.64,3.3,7.74,3.3C911.45,63.14,915.33,58.41,915.33,50.57Z"/><path class="cls-2" d="M929.33,35.12h4.44l.46,3.67h.18c2.87-2.39,6.44-4.46,10.12-4.46,8.21,0,12.59,6.37,12.59,16.19,0,10.82-6.49,17.14-13.75,17.14-2.91,0-5.89-1.34-8.81-3.68l.15,5.55V80.28h-5.38Zm22.24,15.45c0-7-2.39-11.71-8.37-11.71-2.69,0-5.4,1.48-8.49,4.33V59.84a12.41,12.41,0,0,0,7.73,3.3C947.7,63.14,951.57,58.41,951.57,50.57Z"/><path class="cls-2" d="M964.59,25.12a3.72,3.72,0,0,1,7.43,0,3.72,3.72,0,0,1-7.43,0Zm1,10H971V66.88h-5.37Z"/><path class="cls-2" d="M981.67,35.12h4.44l.45,4.58h.18c3-3,6.3-5.37,10.66-5.37,6.69,0,9.69,4.32,9.69,12.43V66.88h-5.37V47.45c0-5.92-1.79-8.45-6-8.45-3.25,0-5.5,1.66-8.69,4.88v23h-5.37Z"/><path class="cls-2" d="M1015,73c0-2.72,1.73-5.28,4.65-7.18v-.26a5.9,5.9,0,0,1-2.84-5.21c0-2.63,1.85-4.74,3.5-5.89v-.26a11,11,0,0,1-4.12-8.53c0-6.95,5.48-11.32,11.92-11.32a13,13,0,0,1,4.49.79h11.07v4.14h-6.52a9.14,9.14,0,0,1,2.59,6.53c0,6.8-5.14,11-11.63,11a11.25,11.25,0,0,1-4.73-1.07,4.63,4.63,0,0,0-2,3.75c0,2,1.3,3.45,5.56,3.45h6.18c7.38,0,11.1,2.32,11.1,7.58,0,5.9-6.25,11-16.06,11C1020.34,81.5,1015,78.45,1015,73Zm23.93-1.66c0-2.94-2.23-3.95-6.4-3.95H1027a18.21,18.21,0,0,1-4.12-.47c-2.28,1.61-3.25,3.5-3.25,5.32,0,3.42,3.44,5.57,9.22,5.57C1034.93,77.79,1038.91,74.63,1038.91,71.32Zm-4.07-25.67c0-4.62-3-7.42-6.75-7.42s-6.75,2.76-6.75,7.42,3.09,7.55,6.75,7.55S1034.84,50.27,1034.84,45.65Z"/><path class="cls-2" d="M1050.53,63.59a3.89,3.89,0,1,1,3.89,4.07A3.93,3.93,0,0,1,1050.53,63.59Zm1.31-34.37-.15-6.12h5.46l-.14,6.12-.75,24.69h-3.68Z"/><path class="cls-2" d="M94.12,739.1l-1.53,1.75H46.53v34H72.07l1.75,1.75v20.52l-1.75,1.53H46.53V855l-1.75,1.75H24.26L22.52,855V718.58l1.74-1.75H92.59l1.53,1.75Z"/><path class="cls-2" d="M183.84,778c0,9.82-7.2,20.3-16.81,22.92l16.6,53.49-1.31,2.4H161.79l-1.74-1.31-16.59-53.27h-7.21V855l-1.74,1.75H114L112.24,855V718.58l1.75-1.75H158.3c11.14,0,19.21,5.68,22.49,12.88a28.64,28.64,0,0,1,3.05,12.88Zm-23.79-4.8V745.43a4.86,4.86,0,0,0-5-4.58H136.25V778.4H155A5.26,5.26,0,0,0,160.05,773.16Z"/><path class="cls-2" d="M226.19,774.47h25.54l1.75,1.74v20.52l-1.75,1.53H226.19v34.28h46.06l1.53,1.52v20.53l-1.53,1.74H203.92l-1.74-1.74V718.14l1.74-1.74h68.33l1.53,1.74v20.52l-1.53,1.75H226.19Z"/><path class="cls-2" d="M316.79,774.47h25.54l1.75,1.74v20.52l-1.75,1.53H316.79v34.28h46.06l1.53,1.52v20.53l-1.53,1.74H294.52l-1.75-1.74V718.14l1.75-1.74h68.33l1.53,1.74v20.52l-1.53,1.75H316.79Z"/><path class="cls-2" d="M446.24,834.5V821l1.75-1.75h20.52l1.75,1.75v7.2a4.76,4.76,0,0,0,5,4.8H489a5.26,5.26,0,0,0,5-5.24v-24l-.22-.22a4.57,4.57,0,0,0-4.8-4.8H468.51c-10.26,0-16.15-4.8-19.65-11.13a23.81,23.81,0,0,1-2.62-10.92V739.1c0-12,8.3-22.27,22.27-22.27H495.8c10,0,15.94,4.81,19.43,11.14a26.23,26.23,0,0,1,2.84,11.13v13.54l-1.75,1.74H495.8l-1.75-1.74v-7l-.22-.22c0-2.62-1.74-4.58-4.8-4.58H475.28c-2.18,0-3.93.87-4.37,2.18a7.26,7.26,0,0,0-.65,2.84v24.45a4.86,4.86,0,0,0,5,4.58H495.8c10,0,15.94,4.81,19.43,11.14a26.23,26.23,0,0,1,2.84,11.13V834.5a39.71,39.71,0,0,1-1.31,7,21.47,21.47,0,0,1-8.08,11.79,23,23,0,0,1-12.88,3.49H468.51C454.76,856.77,446.24,845.85,446.24,834.5Z"/><path class="cls-2" d="M608.66,855.24,607.13,857H586.61l-1.75-1.75V798.92h-24v56.32L559.1,857H538.58l-1.74-1.75V718.8l1.74-1.75H559.1l1.75,1.75v56.32h24V718.8l1.75-1.75h20.52l1.53,1.75Z"/><path class="cls-2" d="M652.32,854.8l-1.75,1.75H630.05l-1.75-1.75V718.36l1.75-1.74h20.52l1.75,1.74Z"/><path class="cls-2" d="M740.51,729.71a28.57,28.57,0,0,1,3.06,12.88v34.06a25.37,25.37,0,0,1-1.09,7.86c-2.62,9.17-10.92,17.68-24.45,17.68H696V855l-1.75,1.75H673.71L672,855V718.58l1.75-1.75H718C729.16,716.83,737.24,722.51,740.51,729.71Zm-20.74,43.45V745.43a4.86,4.86,0,0,0-5-4.58H696V778.4h18.77A5.26,5.26,0,0,0,719.77,773.16Z"/><path class="cls-2" d="M830.45,729.71a28.57,28.57,0,0,1,3.06,12.88v34.06a25.37,25.37,0,0,1-1.09,7.86c-2.62,9.17-10.92,17.68-24.45,17.68H785.92V855l-1.75,1.75H763.65L761.9,855V718.58l1.75-1.75H808C819.1,716.83,827.18,722.51,830.45,729.71Zm-20.74,43.45V745.43a4.86,4.86,0,0,0-5-4.58H785.92V778.4h18.77A5.26,5.26,0,0,0,809.71,773.16Z"/><path class="cls-2" d="M875.86,854.8l-1.75,1.75H853.59l-1.75-1.75V718.36l1.75-1.74h20.52l1.75,1.74Z"/><path class="cls-2" d="M967.33,854.8l-1.53,1.75H945.28l-1.75-1.09-24-71.82V854.8l-1.75,1.75H897.25l-1.75-1.75V718.36l1.75-1.74h20.52l1.75,1.3,24,71.83V718.36l1.75-1.74H965.8l1.53,1.74Z"/><path class="cls-2" d="M1008.37,716.83h27.29c10,0,15.93,4.81,19.43,11.14a26.23,26.23,0,0,1,2.84,11.13v20.52l-1.75,1.53h-20.52l-1.75-1.53v-14l-.22-.22c0-2.62-1.52-4.58-4.8-4.58h-13.75c-2.19,0-3.93.87-4.37,2.18a7.26,7.26,0,0,0-.65,2.84v82.3a4.76,4.76,0,0,0,5,4.8h13.75c1.75,0,3.71-1.09,4.15-2.4a10.78,10.78,0,0,0,.87-2.84V809h-5l-1.75-1.75v-20.3l1.75-1.75h27.29l1.75,1.75V834.5c-.88,11.57-8.08,22.27-22.27,22.27h-27.29c-9.82,0-16.37-5.24-19.65-11.35a23.66,23.66,0,0,1-2.62-10.92V739.1C986.1,727.09,994.4,716.83,1008.37,716.83Z"/><path class="cls-2" d="M375.08,1053.26l-1.53,1.75H353l-1.75-1.09-24-71.82v71.16l-1.75,1.75H305l-1.75-1.75V916.82l1.75-1.74h20.52l1.75,1.3,24,71.83V916.82l1.75-1.74h20.52l1.53,1.74Z"/><path class="cls-2" d="M416.12,915.29h27.29c10,0,15.93,4.81,19.43,11.14a26.23,26.23,0,0,1,2.84,11.13V1033c-.88,11.57-8.08,22.27-22.27,22.27H416.12c-9.82,0-16.37-5.24-19.65-11.35a23.66,23.66,0,0,1-2.62-10.92v-95.4C393.85,925.55,402.15,915.29,416.12,915.29Zm25.54,110.9V944.11l-.22-.22c0-2.62-1.74-4.58-4.8-4.58H422.89c-2.19,0-3.93.87-4.37,2.18a7.26,7.26,0,0,0-.65,2.84v82.3a4.76,4.76,0,0,0,5,4.8h13.75A5.26,5.26,0,0,0,441.66,1026.19Z"/><path class="cls-2" d="M554.52,937.56l-1.75,1.75H530.51v114.17l-1.75,1.75h-20.3l-1.75-1.75V939.31H484.44l-1.53-1.75V917l1.53-1.75h68.33l1.75,1.75Z"/><path class="cls-2" d="M596.21,1053.26l-1.74,1.75H573.94l-1.74-1.75V916.82l1.74-1.74h20.53l1.74,1.74Z"/><path class="cls-2" d="M637.26,915.51h27.28c10.05,0,15.94,4.8,19.43,11.14a26.23,26.23,0,0,1,2.84,11.13V958.3l-1.74,1.53H664.54l-1.74-1.53v-14l-.22-.22c0-2.62-1.53-4.58-4.8-4.58H644c-2.18,0-3.93.87-4.36,2.18a7.17,7.17,0,0,0-.66,2.84v82.3a4.76,4.76,0,0,0,5,4.8h13.76c1.74,0,3.71-1.09,4.14-2.4a10.58,10.58,0,0,0,.88-2.84v-13.53l1.74-1.75h20.53l1.74,1.75v20.3c-.87,11.57-8.08,22.27-22.27,22.27H637.26c-9.83,0-16.38-5.24-19.65-11.36a23.61,23.61,0,0,1-2.62-10.91v-95.4C615,925.77,623.29,915.51,637.26,915.51Z"/><path class="cls-2" d="M729.38,972.93h25.54l1.74,1.74v20.52l-1.74,1.53H729.38V1031h46.06l1.53,1.52v20.53l-1.53,1.74H707.11l-1.75-1.74V916.6l1.75-1.74h68.33L777,916.6v20.52l-1.53,1.75H729.38Z"/><path class="cls-3" d="M606.55,142.41a51.29,51.29,0,0,0-91.61-24.26c-12.16,15.94-28.06,60-38.63,91.95-10.58-32-26.48-76-38.64-91.95a51.28,51.28,0,1,0-81.55,62.2c19,24.89,104.84,72.9,114.57,78.29a10.95,10.95,0,0,0,11.08-.11l.14.11c9.74-5.39,95.6-53.4,114.58-78.29A51,51,0,0,0,606.55,142.41Zm-232,23.9a28.13,28.13,0,0,1,44.73-34.11c10.27,13.46,26.3,58.37,37.13,91.57C422.64,203.85,384.12,178.89,374.53,166.31Zm203.55,0c-9.59,12.57-48.1,37.53-81.86,57.45,10.83-33.2,26.86-78.1,37.13-91.56a28.13,28.13,0,1,1,44.73,34.11Z"/><path class="cls-4" d="M476.31,271.67a11.61,11.61,0,0,1-4.3-.82L327.25,213a11.59,11.59,0,0,1,8.59-21.52L476.3,247.62l140.47-56.19a11.58,11.58,0,1,1,8.59,21.51L480.6,270.85A11.56,11.56,0,0,1,476.31,271.67Z"/><path class="cls-4" d="M835.31,445.39h-139V607.52H870.05a11.58,11.58,0,0,0,11.58-11.58V491.71A46.32,46.32,0,0,0,835.31,445.39Z"/><path class="cls-5" d="M696.34,468.55h139a23.15,23.15,0,0,1,23.16,23.16V607.52H696.34Z"/><path class="cls-6" d="M857.55,607.52a81,81,0,0,0-160.29,0Z"/><path class="cls-4" d="M789,306.42H696.34v46.32h121.6a5.79,5.79,0,0,0,5.79-5.79v-5.79A34.74,34.74,0,0,0,789,306.42Z"/><path class="cls-3" d="M684.76,260.09H267.85a11.59,11.59,0,0,0-11.58,11.58V503.29H233.11a11.58,11.58,0,0,0,0,23.16h69.48a11.58,11.58,0,1,1,0,23.16H256.27v46.33a11.59,11.59,0,0,0,11.58,11.58H696.34V271.67A11.58,11.58,0,0,0,684.76,260.09Z"/><path class="cls-4" d="M436.58,549.62a79.52,79.52,0,0,0-82.68,0H210a11.58,11.58,0,1,0,0,23.16h46.32v23.16a11.59,11.59,0,0,0,11.58,11.58H696.34v-57.9Z"/><circle class="cls-7" cx="777.41" cy="619.1" r="57.9"/><circle class="cls-7" cx="395.24" cy="619.1" r="57.9"/><polygon class="cls-8" points="835.31 445.39 812.15 352.74 696.34 352.74 696.34 445.39 835.31 445.39"/><circle class="cls-9" cx="395.24" cy="619.1" r="34.74"/><circle class="cls-10" cx="395.24" cy="619.1" r="11.58"/><circle class="cls-9" cx="777.41" cy="619.1" r="34.74"/><circle class="cls-10" cx="777.41" cy="619.1" r="11.58"/><path class="cls-11" d="M742.66,375.9h75.28l-5.79-23.16H696.34v92.65h34.74V387.48A11.59,11.59,0,0,1,742.66,375.9Z"/><path class="cls-5" d="M696.34,329.58H789a11.58,11.58,0,0,1,11.58,11.58v11.58H696.34V329.58Z"/><rect class="cls-12" x="846.89" y="491.71" width="34.74" height="46.32"/><path class="cls-13" d="M823.73,491.71v23.16A23.16,23.16,0,0,0,846.89,538h11.58V491.71Z"/><path class="cls-2" d="M372.08,341.16H325.76a11.58,11.58,0,0,0-11.59,11.58v92.65a11.59,11.59,0,0,0,23.17,0V410.65H360.5a11.59,11.59,0,0,0,0-23.17H337.34V364.32h34.74a11.58,11.58,0,1,0,0-23.16Z"/><path class="cls-2" d="M476.31,381.69a40.59,40.59,0,0,0-40.54-40.53H406.82a11.57,11.57,0,0,0-11.58,11.58v92.65a11.58,11.58,0,0,0,23.16,0V422.23h17l19.72,29.58A11.58,11.58,0,1,0,474.36,439l-15.84-23.75A40.53,40.53,0,0,0,476.31,381.69ZM418.4,364.32h17.37a17.37,17.37,0,0,1,0,34.74H418.4Z"/><path class="cls-2" d="M545.79,364.32a11.58,11.58,0,1,0,0-23.16H499.47a11.57,11.57,0,0,0-11.58,11.58v92.65A11.57,11.57,0,0,0,499.47,457h46.32a11.58,11.58,0,1,0,0-23.16H511.05V410.65h23.16a11.59,11.59,0,0,0,0-23.17H511.05V364.32Z"/><path class="cls-2" d="M626.86,433.81H592.11V410.65h11.58a11.59,11.59,0,1,0,0-23.17H592.11V364.32h34.75a11.58,11.58,0,1,0,0-23.16H580.53A11.57,11.57,0,0,0,569,352.74v92.65A11.57,11.57,0,0,0,580.53,457h46.33a11.58,11.58,0,1,0,0-23.16Z"/></svg>